<svg width="160" height="120" xmlns="http://www.w3.org/2000/svg">
 <g>
  <title>imccc.cc</title>
  <g id="svg_1" stroke="null">
   <path fill="#ff5656" opacity="NaN" d="m41.98915,87.53319c0,0 -12.91731,6.667 -23.95953,-2.91681c-11.04222,-9.58382 -7.60455,-24.48041 -4.16687,-29.16813c3.43767,-4.68772 8.95873,-10.41717 17.29253,-10.62553c8.3338,-0.20837 9.79215,2.91681 9.79215,2.91681c0,0 -6.25031,-9.16713 -22.70947,-2.08344c-16.45916,7.08369 -12.91731,25.00126 -12.91731,25.00126c0,0 0.83337,13.75068 12.91731,19.37596c12.08394,5.62528 23.75119,-2.50012 23.75119,-2.50012z" id="svg_2" stroke="null"/>
   <path id="svg_4" d="m72.46593,41.4062c0.4362,-2.0232 0.72691,-2.67965 -0.05859,-7.97729c-0.7855,-5.29763 -2.92734,-8.81554 -7.10474,-11.73866c-4.1774,-2.92312 -12.46485,-5.20438 -19.34861,-1.03751c-6.88376,4.16687 -8.71887,7.68557 -9.18185,14.28522c-0.46299,6.59966 4.59198,12.38488 4.59198,12.38488c0.8418,1.26269 -4.98762,-2.49592 -6.45445,-7.29624c-1.46682,-4.80033 -1.87088,-14.16106 4.7877,-20.20512c6.65858,-6.04408 15.93409,-9.3881 25.83462,-3.12515c9.90054,6.26294 9.37756,15.40887 9.19315,17.73516l-0.75533,3.62031l-1.50388,3.35442l0,0l0,0l0,-0.00002z" opacity="NaN" fill="#f79438" stroke="null"/>
   <path id="svg_6" d="m74.9715,34.57363l0.64505,-6.75405l1.26501,-4.19286c2.18954,-4.05155 4.30154,-6.66705 7.22626,-8.24168c2.92474,-1.57463 7.97164,-2.23321 12.39973,-1.48294c4.42809,0.75027 7.71655,2.90938 9.72858,4.88673c4.0241,3.95469 5.24528,6.54329 5.77734,11.08964c0.53207,4.54635 -0.80402,8.9688 -1.82568,10.83834c-2.04296,3.73956 -3.14564,4.0019 -3.14564,4.0019c0,0 5.61307,-3.4235 7.49406,-10.37831c1.88119,-6.95457 -0.05822,-14.91974 -6.0285,-19.57794c-5.97025,-4.65818 -13.10667,-7.17591 -22.12228,-4.37683c-9.01559,2.79908 -11.08315,9.20627 -12.03528,13.74769l-0.09584,5.0812l0.71718,5.35914l-0.00001,-0.00001l-0.00001,-0.00001l0,0.00001l0.00002,-0.00002z" opacity="NaN" stroke-opacity="0" fill="#ffff00" stroke="#000000"/>
   <path id="svg_5" d="m145.95268,55.13574c2.70848,-12.50062 -4.47942,-23.64704 -15.83412,-25.00125c-11.35469,-1.35421 -17.29253,7.70872 -17.29253,7.70872c0,0 5.2086,-7.50038 9.58382,-9.16713c4.37523,-1.66675 9.58382,-2.91681 17.50089,0.83338c7.91704,3.7502 11.04222,13.75069 10.41718,21.04272c-0.62502,7.29203 -6.25031,13.334 -7.29202,13.75068c-3.6459,1.97923 -9.68791,2.7606 -13.02141,3.5419l6.61476,-1.38039l4.63573,-3.77618l4.68773,-7.55246l0,0.00001l0,0l0,0l-0.00002,0z" opacity="NaN" fill="#00ffff" stroke="null"/>
   <path fill="#00bf5f" opacity="NaN" d="m120.40779,94.69175c1.35749,1.9109 3.99427,4.02689 6.61159,5.26394c2.61731,1.23705 4.56406,1.56909 9.00764,1.40958c4.44359,-0.15952 10.86325,-3.31057 15.86348,-12.0612c1.45854,-4.68782 3.07298,-9.27144 1.04155,-14.1154c-2.03145,-4.84395 -4.16701,-6.40648 -6.8752,-8.17734c-2.70819,-1.77085 -6.66699,-2.39596 -5.62527,-2.50013c-1.66675,0.10417 8.95877,-1.66675 15.00075,10.20885c6.04196,11.8756 -3.3335,24.58456 -9.79216,27.50137c-6.45865,2.91681 -11.45889,3.3335 -17.70921,1.04172c-3.12515,-1.14589 -5.52112,-4.16687 -7.13578,-6.90137c-0.80733,-1.36726 -1.41933,-2.6629 -1.82951,-3.61672c-0.41017,-0.95382 -0.61852,-1.56583 -0.61852,-1.56583" id="svg_7" stroke="null"/>
   <path id="svg_9" d="m49.69787,42.11425c0,0 0.62503,-5.62528 2.70847,-7.29203c2.08344,-1.66675 5.83363,3.3335 5.83363,3.3335c0,0 2.29178,6.87534 -0.62503,8.1254c-2.91681,1.25006 -5.83363,-0.83337 -5.83363,-0.83337c0,0 -2.08344,-3.3335 -2.08344,-3.3335z" opacity="NaN" fill="#000000" stroke="null"/>
   <path id="svg_11" d="m43.75587,74.09075l-3.4349,19.16901c0.10151,0.10217 -0.94018,6.35231 0.51818,10.10234c1.45836,3.75002 3.95841,7.29179 6.66679,4.47925c2.70838,-2.81255 -1.66669,-5.3126 -1.7682,-5.41476c0.1015,0.10217 -0.62767,-5.31465 1.03902,-12.50222c1.6667,-7.18758 3.75006,-14.68777 3.64856,-14.78993c0.1015,0.10217 0.7265,-3.43957 -2.60689,-5.31461c-3.33338,-1.87504 -3.01555,0.73317 -3.85156,0.10618c-0.83601,-0.62699 -0.21101,4.16474 -0.21101,4.16474l0,0l0.00001,0z" opacity="NaN" fill="#000000" stroke="null"/>
   <path id="svg_12" d="m63.86306,70.44684c0.10151,0.10217 0.30984,2.49804 -0.21101,6.35228c-0.52084,3.85424 -3.33339,19.68785 -3.43489,19.58569c0.10151,0.10216 -1.46102,8.74815 0.41402,11.03986c1.87503,2.29173 5.52093,1.77087 5.6251,-1.35419c0.10417,-3.12506 5.0001,-11.14603 9.16682,-15.93778c4.16673,-4.79176 10.31268,-9.37517 10.21119,-9.47733c0.10149,0.10217 1.66404,13.64407 2.49738,16.8733c0.83335,3.22923 3.43757,10.83353 8.22932,6.25011c4.79176,-4.58342 5.20844,-8.43764 8.54182,-11.97938c3.3334,-3.54173 6.77628,-7.70451 7.19029,-8.019c0.41402,-0.31449 1.55987,10.41486 1.45835,10.3127c0.10152,0.10217 2.28905,12.28989 6.35162,11.87321c4.06258,-0.41667 3.9584,-3.95841 3.85689,-4.06057c0.10152,0.10216 -5.52357,-9.89802 -4.89858,-13.33558c0.62502,-3.43756 -0.83334,-11.56271 -0.93484,-11.66486c0.10151,0.10217 -0.83599,-3.54375 -6.04443,0.10217c-5.20847,3.64592 -8.17336,6.51362 -11.03925,10.73138c-2.86594,4.21775 -5.65328,8.20158 -6.20031,8.61817c-0.54704,0.4166 -1.30238,-1.82957 -1.65396,-5.176c-0.35162,-3.34643 -0.82037,-7.37646 -0.69016,-11.77761c0.26042,-8.80228 -3.43224,-8.01704 -3.33073,-7.91486c0.10149,0.10217 -7.70591,4.58548 -11.56277,8.85434c-3.85685,4.26886 -9.1641,8.96053 -10.20845,11.04188c-1.04436,2.08135 1.66403,-8.43968 1.56252,-8.54185c0.10152,0.10217 2.80993,-14.6898 1.24738,-17.91901c-1.56256,-3.22921 -4.27091,-1.87502 -4.37244,-1.9772c0.05077,0.05109 -2.47584,0.46722 -3.4268,3.29258l1.65594,4.20756l-0.00001,0l0,0l-0.00001,0l-0.00002,0z" opacity="NaN" fill="#000000" stroke="null"/>
  </g>
 </g>

</svg>